<svg width="150" height="90" viewBox="0 0 150 90" xmlns="http://www.w3.org/2000/svg">
  <rect width="150" height="90" fill="#f8fafc"/>
  <g transform="translate(15,15)">
    <!-- Dividend bars with trend -->
    <rect x="5" y="50" width="10" height="10" fill="#22c55e" opacity="0.7"/>
    <rect x="20" y="48" width="10" height="12" fill="#22c55e" opacity="0.7"/>
    <rect x="35" y="45" width="10" height="15" fill="#22c55e" opacity="0.8"/>
    <rect x="50" y="43" width="10" height="17" fill="#22c55e" opacity="0.8"/>
    <rect x="65" y="40" width="10" height="20" fill="#22c55e" opacity="0.8"/>
    <rect x="80" y="38" width="10" height="22" fill="#22c55e" opacity="0.9"/>
    <rect x="95" y="35" width="10" height="25" fill="#22c55e"/>
    <rect x="110" y="32" width="10" height="28" fill="#22c55e"/>
    
    <!-- Yield line overlay -->
    <polyline points="10,55 25,50 40,47 55,45 70,42 85,40 100,37 115,35" fill="none" stroke="#f28500" stroke-width="2" stroke-dasharray="2,2"/>
    
    <!-- Grid lines -->
    <line x1="0" y1="35" x2="125" y2="35" stroke="#e2e8f0" stroke-width="0.5"/>
    <line x1="0" y1="45" x2="125" y2="45" stroke="#e2e8f0" stroke-width="0.5"/>
    <line x1="0" y1="55" x2="125" y2="55" stroke="#e2e8f0" stroke-width="0.5"/>
  </g>
  <text x="75" y="82" text-anchor="middle" font-family="Inter, sans-serif" font-size="10" fill="#64748b">Dividends</text>
</svg>