<svg width="150" height="90" viewBox="0 0 150 90" xmlns="http://www.w3.org/2000/svg">
  <rect width="150" height="90" fill="#f8fafc"/>
  <g transform="translate(15,15)">
    <!-- Free cash flow area chart -->
    <path d="M0,50 L20,45 L40,40 L60,35 L80,30 L100,25 L120,20 L120,60 L0,60 Z" fill="#3b82f6" opacity="0.2"/>
    <polyline points="0,50 20,45 40,40 60,35 80,30 100,25 120,20" fill="none" stroke="#3b82f6" stroke-width="2"/>
    <!-- Data points -->
    <circle cx="0" cy="50" r="2" fill="#3b82f6"/>
    <circle cx="20" cy="45" r="2" fill="#3b82f6"/>
    <circle cx="40" cy="40" r="2" fill="#3b82f6"/>
    <circle cx="60" cy="35" r="2" fill="#3b82f6"/>
    <circle cx="80" cy="30" r="2" fill="#3b82f6"/>
    <circle cx="100" cy="25" r="2" fill="#3b82f6"/>
    <circle cx="120" cy="20" r="3" fill="#3b82f6"/>
    <!-- Grid lines -->
    <line x1="0" y1="20" x2="120" y2="20" stroke="#e2e8f0" stroke-width="0.5"/>
    <line x1="0" y1="35" x2="120" y2="35" stroke="#e2e8f0" stroke-width="0.5"/>
    <line x1="0" y1="50" x2="120" y2="50" stroke="#e2e8f0" stroke-width="0.5"/>
  </g>
  <text x="75" y="82" text-anchor="middle" font-family="Inter, sans-serif" font-size="10" fill="#64748b">Free Cash Flow</text>
</svg>