<svg width="150" height="90" viewBox="0 0 150 90" xmlns="http://www.w3.org/2000/svg">
  <rect width="150" height="90" fill="#f8fafc"/>
  <g transform="translate(15,15)">
    <!-- Multiple ratio lines -->
    <polyline points="0,45 20,40 40,35 60,30 80,25 100,22 120,20" fill="none" stroke="#f28500" stroke-width="2"/>
    <polyline points="0,50 20,48 40,45 60,42 80,40 100,35 120,30" fill="none" stroke="#3b82f6" stroke-width="2"/>
    <polyline points="0,55 20,52 40,50 60,48 80,45 100,42 120,40" fill="none" stroke="#22c55e" stroke-width="2"/>
    
    <!-- Data points for latest values -->
    <circle cx="120" cy="20" r="2.5" fill="#f28500"/>
    <circle cx="120" cy="30" r="2.5" fill="#3b82f6"/>
    <circle cx="120" cy="40" r="2.5" fill="#22c55e"/>
    
    <!-- Grid lines -->
    <line x1="0" y1="20" x2="120" y2="20" stroke="#e2e8f0" stroke-width="0.5"/>
    <line x1="0" y1="35" x2="120" y2="35" stroke="#e2e8f0" stroke-width="0.5"/>
    <line x1="0" y1="50" x2="120" y2="50" stroke="#e2e8f0" stroke-width="0.5"/>
  </g>
  <text x="75" y="82" text-anchor="middle" font-family="Inter, sans-serif" font-size="10" fill="#64748b">Key Ratios</text>
</svg>